<svg xmlns="http://www.w3.org/2000/svg" viewBox="0 0 64 64" role="img" aria-label="Pre-built Ventures">
  <rect width="64" height="64" rx="12" fill="#101820"/>
  <rect x="7" y="7" width="50" height="50" rx="10" fill="#c4913f"/>
  <path d="M18 44V20h12.2c5.1 0 8.3 3 8.3 7.5 0 4.7-3.4 7.7-8.5 7.7h-4.5V44H18Zm7.5-14.8h3.9c1.8 0 2.9-.8 2.9-2.4 0-1.6-1.1-2.4-2.9-2.4h-3.9v4.8Z" fill="#101820"/>
  <path d="M36.7 44V20h11.1c4.7 0 7.5 2.4 7.5 6.2 0 2.4-1.2 4.1-3.2 5 2.6.8 4.1 2.8 4.1 5.6 0 4.5-3.2 7.2-8.5 7.2h-11Zm7-14.5h2.7c1.5 0 2.4-.8 2.4-2.1 0-1.4-.9-2.1-2.4-2.1h-2.7v4.2Zm0 9.2h3.2c1.7 0 2.6-.8 2.6-2.3 0-1.5-.9-2.3-2.7-2.3h-3.1v4.6Z" fill="#101820"/>
</svg>
